<?xml version="1.0" encoding="UTF-8" standalone="no"?>
<!-- Created with Inkscape (http://www.inkscape.org/) -->

<svg
   version="1.1"
   id="svg1"
   width="316.66666"
   height="228.66667"
   viewBox="0 0 316.66666 228.66667"
   xmlns="http://www.w3.org/2000/svg"
   xmlns:svg="http://www.w3.org/2000/svg">
  <defs
     id="defs1" />
  <g
     id="g1">
    <path
       style="fill:#0a4158"
       d="M 0.56252548,114.89586 V 0.56252564 H 158.89586 317.22919 V 114.89586 229.22919 H 158.89586 0.56252548 Z M 116.7486,188.23954 c 6.03272,-1.57133 12.21578,-4.94439 16.85384,-9.19433 2.81188,-2.57658 4.39413,-3.6246 4.5905,-3.04057 0.16481,0.49017 0.87855,2.84122 1.58609,5.22455 l 1.28643,4.33333 3.01954,0.20065 3.01954,0.20065 2.08173,-6.70065 c 1.14495,-3.68535 2.21012,-6.70065 2.36703,-6.70065 0.15692,0 1.21592,3.01572 2.35333,6.70159 l 2.06804,6.70158 3.05014,-0.20158 3.05015,-0.20159 3.23131,-11 c 1.77722,-6.05 3.23693,-11.39225 3.24378,-11.87166 0.009,-0.6139 -0.81984,-0.81105 -2.8021,-0.66667 -2.76474,0.20137 -2.83069,0.26402 -3.72456,3.53833 -2.31961,8.49696 -2.9242,10.33334 -3.40208,10.33334 -0.28231,0 -0.89888,-1.72304 -1.37017,-3.82898 -0.47128,-2.10594 -1.28064,-5.25594 -1.79858,-7 -0.93814,-3.15907 -0.95272,-3.17102 -3.86856,-3.17102 h -2.92686 l -1.03251,3.55171 c -0.56789,1.95344 -1.3907,5.10344 -1.82848,7 -0.43777,1.89656 -1.03287,3.44829 -1.32243,3.44829 -0.63958,0 -2.0806,-5.02345 -2.10363,-7.33334 -0.009,-0.91666 0.63042,-4.03965 1.42124,-6.93997 2.43383,-8.926 1.75403,-16.31102 -2.28506,-24.82383 -1.30151,-2.74306 -3.75899,-6.34864 -5.7934,-8.5 l -3.5331,-3.7362 h -7.80862 -7.80862 v 9.95822 9.95821 l 2.56623,-0.0354 c 3.25912,-0.045 5.16645,0.98201 6.80028,3.66154 1.70411,2.79479 1.63901,5.08963 -0.22293,7.85886 -2.88695,4.29371 -8.38057,4.56921 -11.97692,0.60064 -1.73537,-1.91499 -1.83347,-2.36983 -1.83603,-8.51256 -10e-4,-3.56922 -0.19779,-10.31449 -0.43622,-14.98949 l -0.43351,-8.50002 h -2.89712 c -1.59341,0 -2.93047,0.225 -2.97123,0.5 -0.0408,0.275 -0.26576,7.15146 -0.5,15.28101 -0.41733,14.48421 -0.45862,14.81582 -2.05582,16.51461 -3.261315,3.46874 -8.242155,3.34199 -11.536735,-0.29357 -2.67745,-2.95456 -2.5476,-6.57557 0.34915,-9.73646 1.89244,-2.06501 2.60121,-2.38783 5.33333,-2.42913 l 3.15085,-0.0476 -0.004,-4.39441 c -0.002,-2.41696 -0.19666,-6.86945 -0.43214,-9.89445 l -0.42815,-5.5 h -7.49604 -7.49605 l -3.70562,4.00251 c -10.00921,10.81114 -12.01672,27.44105 -4.9416,40.93545 2.76293,5.26974 10.30875,12.80938 15.59299,15.58021 7.54546,3.95654 17.850105,5.21999 25.763355,3.15885 z m -7.3701,-11.17702 0.18403,-10.16666 h 6.81838 c 6.54154,0 6.89245,0.0741 8.64285,1.82467 1.54755,1.54772 1.82448,2.38334 1.82448,5.50529 0,5.16844 -1.48223,6.55816 -7.46957,7.00337 l -4.48281,0.33333 -0.205,2.83334 c -0.20424,2.82293 -0.21471,2.83333 -2.8507,2.83333 h -2.64569 z m 12.07967,-1.28156 c 0.4949,-0.78948 0.47036,-1.61645 -0.0841,-2.83333 -0.67341,-1.47799 -1.20475,-1.71844 -3.79726,-1.71844 h -3.01428 v 3.03653 3.03653 l 3.09837,-0.2032 c 2.00455,-0.13146 3.34511,-0.59679 3.79727,-1.31809 z m 73.10435,8.13822 v -1.97668 l -6.83333,-0.18999 -6.83333,-0.18999 v -2.66666 -2.66667 l 5.16666,-0.19471 5.16667,-0.19471 v -1.94391 -1.94392 l -5.16667,-0.19471 -5.16666,-0.19471 -0.2055,-2.47625 -0.20549,-2.47624 6.87216,-0.19042 6.87216,-0.19042 0.20891,-2.16667 0.2089,-2.16666 h -10.04224 -10.04224 l 0.006,8.5 c 0.003,4.675 0.19497,10.075 0.42619,12 l 0.4204,3.5 h 9.57381 9.5738 z m 26,-0.0233 v -2 h -6.33333 c -4.63032,0 -6.32925,-0.22408 -6.31815,-0.83334 0.008,-0.45833 2.85836,-3.91055 6.33334,-7.6716 5.46845,-5.91863 6.31814,-7.15141 6.31814,-9.16667 v -2.32839 h -10.04224 -10.04223 l 0.2089,2.16666 0.20891,2.16667 6.16666,0.19168 c 3.39167,0.10543 6.16667,0.35332 6.16667,0.55087 0,0.19755 -2.84899,3.5613 -6.3311,7.47499 -5.23449,5.88328 -6.33148,7.49108 -6.33333,9.28246 l -0.002,2.16667 h 10 10 z m 12.58607,-0.36147 0.85391,-2.36146 4.78001,0.1948 c 4.68248,0.19082 4.79947,0.239 5.73366,2.36146 0.83619,1.89982 1.26725,2.16667 3.5,2.16667 1.40049,0 2.54635,-0.24561 2.54635,-0.5458 0,-0.30019 -1.89053,-5.62519 -4.20118,-11.83334 l -4.20117,-11.28753 -3.34326,-0.19727 -3.34327,-0.19726 -3.22086,8.86393 c -1.77148,4.87516 -3.77211,10.28893 -4.44584,12.0306 l -1.22496,3.16667 h 2.85635 c 2.66571,0 2.91333,-0.1576 3.71026,-2.36147 z m 3.55618,-6.86984 c -0.67847,-0.43048 -0.56907,-1.21768 0.52342,-3.76637 0.78837,-1.83919 1.62269,-2.96037 1.94389,-2.61223 0.93113,1.00924 2.18236,5.53457 1.73183,6.26354 -0.50132,0.81115 -2.99436,0.87946 -4.19914,0.11506 z m -74.88683,-39.18916 c 2.11126,-1.47878 3.49234,-5.0074 2.97409,-7.59869 -0.23123,-1.15614 -1.43342,-3.08589 -2.67154,-4.28833 l -2.25112,-2.18626 0.17991,-14.52655 0.17991,-14.526547 6.33333,-1.784334 6.33334,-1.784334 0.20057,-4.189692 0.20058,-4.189691 -1.86724,0.468589 c -1.02699,0.257724 -15.47617,4.344076 -32.1093,9.080783 -16.63312,4.736706 -30.73312,8.609166 -31.33333,8.605456 -2.402,-0.0148 -56.966565,-15.917223 -57.499115,-16.757641 -0.72293,-1.14086 -0.77419,-10.37777 -0.0601,-10.819137 0.29267,-0.180878 13.37932,3.421867 29.08146,8.006102 l 28.549335,8.334971 32.08521,-9.426991 c 17.64687,-5.184845 32.33402,-9.669105 32.63812,-9.965022 0.3041,-0.295916 0.34504,-1.924221 0.091,-3.618455 l -0.46197,-3.080444 H 107.47331 42.535475 l 0.18019,13.749967 0.18019,13.749966 21.33334,6.147441 c 11.73333,3.381093 23.66888,6.955743 26.52345,7.943663 2.85456,0.98793 6.82182,2.09787 8.81612,2.46653 1.994305,0.36867 4.458755,1.10469 5.476555,1.63559 2.44703,1.27643 3.48431,1.22487 6.9444,-0.34519 1.59838,-0.72528 3.61085,-1.32528 4.47217,-1.33333 0.86132,-0.008 5.06132,-1.18108 9.33333,-2.60672 12.14778,-4.05391 27.4223,-8.221715 28.54822,-7.789656 0.89491,0.343407 0.96109,2.072383 0.5306,13.862006 -0.46897,12.84362 -0.56091,13.52401 -1.9781,14.63877 -5.55255,4.36764 -2.49345,13.21429 4.5694,13.21429 1.54028,0 3.49895,-0.4892 4.3526,-1.08713 z"
       id="path7" />
  </g>
</svg>
