<?xml version="1.0" encoding="UTF-8" standalone="no"?>
<!-- Created with Inkscape (http://www.inkscape.org/) -->

<svg
   xmlns:dc="http://purl.org/dc/elements/1.1/"
   xmlns:cc="http://creativecommons.org/ns#"
   xmlns:rdf="http://www.w3.org/1999/02/22-rdf-syntax-ns#"
   xmlns:svg="http://www.w3.org/2000/svg"
   xmlns="http://www.w3.org/2000/svg"
   xmlns:sodipodi="http://sodipodi.sourceforge.net/DTD/sodipodi-0.dtd"
   xmlns:inkscape="http://www.inkscape.org/namespaces/inkscape"
   version="1.1"
   id="svg9144"
   xml:space="preserve"
   width="800"
   height="800"
   viewBox="0 0 800 800"
   sodipodi:docname="Kenya-flag-lion-publicdomainvectors.org.svg"
   inkscape:version="0.92.4 (5da689c313, 2019-01-14)"><metadata
     id="metadata9150"><rdf:RDF><cc:Work
         rdf:about=""><dc:format>image/svg+xml</dc:format><dc:type
           rdf:resource="http://purl.org/dc/dcmitype/StillImage" /><dc:title></dc:title></cc:Work></rdf:RDF></metadata><defs
     id="defs9148"><clipPath
       clipPathUnits="userSpaceOnUse"
       id="clipPath9160"><path
         d="M 0,600 H 600 V 0 H 0 Z"
         id="path9158"
         inkscape:connector-curvature="0" /></clipPath></defs><sodipodi:namedview
     pagecolor="#ffffff"
     bordercolor="#666666"
     borderopacity="1"
     objecttolerance="10"
     gridtolerance="10"
     guidetolerance="10"
     inkscape:pageopacity="0"
     inkscape:pageshadow="2"
     inkscape:window-width="724"
     inkscape:window-height="480"
     id="namedview9146"
     showgrid="false"
     inkscape:zoom="0.295"
     inkscape:cx="400"
     inkscape:cy="400"
     inkscape:window-x="0"
     inkscape:window-y="0"
     inkscape:window-maximized="0"
     inkscape:current-layer="g9152" /><g
     id="g9152"
     inkscape:groupmode="layer"
     inkscape:label="Kenya-flag-lion-publicdomainvectors.org"
     transform="matrix(1.3333333,0,0,-1.3333333,0,800)"><g
       id="g9154"><g
         id="g9156"
         clip-path="url(#clipPath9160)"><path
           d="m 550.702,367.321 v 2.49 c -1.611,4.377 -3.613,7.835 -5.816,10.578 h -52.143 c 0.267,-4.767 1.708,-8.76 3.636,-9.914 -0.182,7.729 6.602,9.533 6.602,9.533 0,0 0.523,-6.936 2.572,-14.949 H 542.7 c -1.828,5.045 -3.322,8.308 -3.322,8.308 0,0 4.083,-0.77 11.324,-6.046"
           style="fill:#ffffff;fill-opacity:1;fill-rule:nonzero;stroke:none"
           id="path9162"
           inkscape:connector-curvature="0" /><path
           d="m 420.203,365.059 h 18.803 c -5.716,4.971 -10.18,10.151 -13.514,15.33 h -17.095 c 2.816,-5.326 6.715,-10.514 11.806,-15.33"
           style="fill:#ffffff;fill-opacity:1;fill-rule:nonzero;stroke:none"
           id="path9164"
           inkscape:connector-curvature="0" /><path
           d="m 393.316,266.09 c 1.982,2.11 4.238,4.515 6.549,6.99 h -42.702 c -0.836,-2.23 -1.958,-4.788 -3.298,-7.525 l 4.506,-7.805 h 86.384 c 5.609,4.465 10.644,9.646 14.858,15.33 h -34.634 c -9.366,-4.443 -20.239,-7.004 -31.663,-6.99"
           style="fill:#ffffff;fill-opacity:1;fill-rule:nonzero;stroke:none"
           id="path9166"
           inkscape:connector-curvature="0" /><path
           d="m 223.743,257.75 h 4.242 c 3.267,5.555 7.591,10.75 11.781,15.33 h -7.676 c -3.265,-5.005 -6.389,-10.085 -8.347,-15.33"
           style="fill:#ffffff;fill-opacity:1;fill-rule:nonzero;stroke:none"
           id="path9168"
           inkscape:connector-curvature="0" /><path
           d="m 287.646,372.584 -4.507,7.805 H 152.991 c 1.121,-0.491 2.262,-1.003 3.441,-1.561 12.688,-5.997 23.398,-9.376 33.255,-13.769 h 94.66 c 0.836,2.23 1.959,4.787 3.299,7.525"
           style="fill:#ffffff;fill-opacity:1;fill-rule:nonzero;stroke:none"
           id="path9170"
           inkscape:connector-curvature="0" /><path
           d="m 287.646,265.554 c -1.34,2.738 -2.463,5.295 -3.299,7.526 H 248.72 c -4.114,-4.79 -8.563,-9.701 -12.286,-15.33 h 46.706 z"
           style="fill:#ffffff;fill-opacity:1;fill-rule:nonzero;stroke:none"
           id="path9172"
           inkscape:connector-curvature="0" /><path
           d="m 118.714,375.093 c 0.254,2.031 0.8,3.8 1.631,5.296 h -4.193 c 0.578,-1.669 1.41,-3.432 2.562,-5.296"
           style="fill:#ffffff;fill-opacity:1;fill-rule:nonzero;stroke:none"
           id="path9174"
           inkscape:connector-curvature="0" /><path
           d="m 349.724,257.75 h 4.221 l -2.159,3.74 c -0.654,-1.229 -1.345,-2.48 -2.062,-3.74"
           style="fill:#ffffff;fill-opacity:1;fill-rule:nonzero;stroke:none"
           id="path9176"
           inkscape:connector-curvature="0" /><path
           d="m 289.724,376.648 c 0.655,1.23 1.344,2.48 2.063,3.741 h -4.222 z"
           style="fill:#ffffff;fill-opacity:1;fill-rule:nonzero;stroke:none"
           id="path9178"
           inkscape:connector-curvature="0" /><path
           d="m 349.724,380.389 c 0.717,-1.261 1.407,-2.511 2.062,-3.741 l 2.159,3.741 z"
           style="fill:#ffffff;fill-opacity:1;fill-rule:nonzero;stroke:none"
           id="path9180"
           inkscape:connector-curvature="0" /><path
           d="m 291.787,257.75 c -0.719,1.26 -1.408,2.511 -2.063,3.74 l -2.159,-3.74 z"
           style="fill:#ffffff;fill-opacity:1;fill-rule:nonzero;stroke:none"
           id="path9182"
           inkscape:connector-curvature="0" /><path
           d="m 461.68,257.838 c 0.572,0.793 1.138,1.58 1.703,2.363 1.096,1.588 2.049,3.248 3.043,4.82 0.88,1.652 1.739,3.275 2.547,4.869 0.465,1.08 0.921,2.141 1.372,3.19 h -4.451 c -0.222,-0.374 -0.44,-0.744 -0.664,-1.124 -0.961,-1.374 -1.941,-2.78 -2.939,-4.212 -1.117,-1.341 -2.176,-2.748 -3.367,-4.076 -0.611,-0.65 -1.221,-1.307 -1.836,-1.964 l -0.923,-0.987 -0.993,-0.932 c -0.662,-0.618 -1.325,-1.241 -1.988,-1.866 -0.063,-0.059 -0.131,-0.111 -0.195,-0.169 h 8.627 z"
           style="fill:#ffffff;fill-opacity:1;fill-rule:nonzero;stroke:none"
           id="path9184"
           inkscape:connector-curvature="0" /><path
           d="m 353.865,372.584 c 1.34,-2.738 2.462,-5.295 3.298,-7.525 h 18.787 c -0.69,1.794 -1.157,3.162 -1.421,3.949 0,0 8.029,2.107 19.197,-3.949 h 15.961 c -2.157,4.716 -4.827,9.923 -7.759,15.33 h -43.557 z"
           style="fill:#ffffff;fill-opacity:1;fill-rule:nonzero;stroke:none"
           id="path9186"
           inkscape:connector-curvature="0" /><path
           d="m 286.006,383.088 1.559,-2.699 h 4.222 c 8.359,14.661 20.663,30.659 28.968,30.659 8.306,0 20.609,-15.998 28.969,-30.659 h 4.221 l 1.559,2.699 c -1.403,5.236 1.472,10.214 4.346,15.192 1.671,2.895 7.712,13.356 18.033,23.613 -5.063,8.713 -8.464,15.045 -8.153,16.597 1.174,5.866 28.142,3.201 34.952,-13.154 -1.169,35.771 -31.32,42.095 -53.432,54.641 -11.507,6.526 16.714,7.621 35.403,-1.538 -4.176,16.052 -51.366,50.821 -86.623,32.054 0,0 -1.003,-18.093 -13.715,-20.407 4.984,6.018 6.776,16.644 4.136,17.818 -9.961,0 -24.364,-14.292 -30.034,-25.143 l -16.022,-2.048 -13.348,-13.786 c 0,0 -22.86,-0.445 -24.035,-9.377 -1.004,-7.654 10.251,-22.639 13.496,-26.771 0,0 4.252,-6.098 9.847,-7.713 -3.81,5.574 -2.905,7.945 -0.707,10.141 3.094,-1.95 5.708,-1.158 5.708,-1.158 0,0 5.427,2.434 9.498,4.175 l -1.491,-12.683 c -6.378,-1.785 -10.585,0.775 -10.585,0.775 l 2.374,-5.466 c 1.318,-6.596 8.354,-18.472 10.556,-18.472 2.198,0 14.069,8.795 17.148,6.597 0.313,-0.224 1.065,-0.547 2.145,-0.915 -2.334,5.607 -4.706,12.557 -6.201,20.318 9.546,-8.27 16.191,-17.455 19.885,-23.198 13.282,-1.463 29.285,0.721 24.488,19.181 7.662,-9.04 11.015,-26.697 -20.299,-26.209 2.391,-4.273 4.335,-8.574 3.132,-13.064"
           style="fill:#000000;fill-opacity:1;fill-rule:nonzero;stroke:none"
           id="path9188"
           inkscape:connector-curvature="0" /><path
           d="m 358.823,381.172 -0.452,-0.783 h 43.557 c -6.794,12.52 -14.983,26.083 -21.407,36.995 -3.736,-12.762 -9.147,-22.138 -10.714,-24.852 -2.874,-4.978 -5.748,-9.957 -10.984,-11.36"
           style="fill:#000000;fill-opacity:1;fill-rule:nonzero;stroke:none"
           id="path9190"
           inkscape:connector-curvature="0" /><path
           d="m 521.001,391.287 c -2.054,0.88 5.828,5.094 11.105,4.804 -6.443,5.275 -14.324,9.423 -26.934,6.928 -66.936,77.207 -120.568,22.378 -96.775,-22.63 h 17.095 c -26.298,40.857 17.818,81.557 73.517,17.833 -5.008,-4.292 -6.609,-11.702 -6.266,-17.833 h 52.143 c -8.451,10.513 -19.894,10.453 -23.885,10.898"
           style="fill:#000000;fill-opacity:1;fill-rule:nonzero;stroke:none"
           id="path9192"
           inkscape:connector-curvature="0" /><path
           d="m 282.687,381.172 c -5.234,1.403 -8.109,6.382 -10.983,11.36 -0.517,0.896 -1.456,2.525 -2.614,4.755 -1.58,0.217 -3.215,0.464 -4.914,0.746 -1.369,0.23 -6.218,-14.109 -7.577,-14.124 -19.103,8.258 -37.541,1.712 -50.134,4.782 -29.967,7.307 -39.071,20.931 -44.901,26.342 -2.798,2.606 -10.541,3.763 -18.686,2.554 -7.952,5.286 -23.187,8.619 -31.286,-4.589 1.249,1.05 9.153,0.649 13.378,-3.241 -0.116,-0.11 -0.221,-0.226 -0.335,-0.336 -9.693,0.037 -20.307,-3.892 -22.073,-15.199 0.865,1.679 9.811,5.214 14.682,1.179 -1.848,-3.942 -3.233,-8.829 -1.092,-15.012 h 4.193 c 3.96,7.124 14.559,7.904 32.646,0 h 130.148 z"
           style="fill:#000000;fill-opacity:1;fill-rule:nonzero;stroke:none"
           id="path9194"
           inkscape:connector-curvature="0" /><path
           d="m 222.549,240.94 c 0.123,5.783 2.29,11.462 5.436,16.81 h -4.242 c -2.013,-5.396 -2.793,-10.965 -1.194,-16.81"
           style="fill:#006600;fill-opacity:1;fill-rule:nonzero;stroke:none"
           id="path9196"
           inkscape:connector-curvature="0" /><path
           d="m 291.787,257.75 h -4.222 l -18.254,-31.617 -3.319,1.916 17.148,29.701 h -46.706 c -5.492,-8.302 -9.404,-18.167 -8.321,-31.52 2.639,-32.544 11.744,-67.057 -18.909,-56.729 -17.287,5.82 -29.606,5.157 -37.529,2.931 -12.812,5.939 -30.04,2.155 -33.274,-11.583 6.471,5.586 12.952,4.89 17.789,2.828 -14.446,-1.338 -26.774,-14.122 -20.833,-27.752 1.968,8.954 8.475,11.867 14.043,12.656 -4.911,-6.098 -3.517,-14.309 3.926,-23.04 -1.229,11.32 6.835,13.44 10.375,13.829 2.077,-1.281 4.484,-2.529 7.243,-3.733 11.215,-3.041 51.597,9.677 87.37,-3.041 2.199,5.718 -6.596,21.297 -11.874,25.697 2.198,13.632 7.623,32.758 26.973,38.472 10.641,3.143 18.183,17.196 24.4,28.987 12.059,-3.54 27.082,-8.42 41.603,-14.503 8.053,-3.377 15.932,-7.144 22.947,-11.271 7.013,-4.118 13.136,-8.684 17.414,-13.499 2.113,-2.413 3.737,-4.891 4.762,-7.283 1.035,-2.384 1.444,-4.67 1.457,-6.562 0.031,-0.475 0.011,-0.925 -0.036,-1.345 -0.042,-0.422 -0.054,-0.824 -0.114,-1.19 -0.153,-0.726 -0.236,-1.362 -0.386,-1.857 -0.304,-0.991 -0.464,-1.52 -0.464,-1.52 0,0 0.227,0.507 0.652,1.458 0.217,0.478 0.381,1.103 0.63,1.827 0.113,0.365 0.172,0.773 0.271,1.202 0.104,0.43 0.182,0.892 0.216,1.387 0.236,1.967 0.118,4.451 -0.671,7.15 -0.773,2.7 -2.179,5.584 -4.104,8.44 -3.897,5.694 -9.724,11.285 -16.441,16.467 -6.726,5.201 -14.343,10.1 -22.15,14.603 -5.838,3.362 -11.776,6.517 -17.572,9.429 -1.797,-1.022 -3.506,-1.594 -5.072,-1.594 -8.305,0 -20.609,15.998 -28.968,30.659"
           style="fill:#006600;fill-opacity:1;fill-rule:nonzero;stroke:none"
           id="path9198"
           inkscape:connector-curvature="0" /><path
           d="m 375.519,228.049 -3.319,-1.916 -18.255,31.617 h -4.221 c -5.228,-9.168 -11.996,-18.855 -18.367,-24.83 54.872,-28.805 71.658,-49.918 57.425,-66.254 -8.32,-9.558 -25.656,5.032 -38.669,-1.476 -1.59,-0.794 -3.083,-1.604 -4.415,-2.528 -0.841,0.187 -20.844,4.488 -28.155,-9.14 3.505,1.637 8.695,1.374 13.745,-0.955 -5.212,-3.921 -10.443,-9.641 -9.644,-16.492 2.376,3.628 7.435,5.54 13.782,5.47 -3.804,-5.669 -8.712,-15.486 -3.03,-22.4 2.152,10.747 11.362,13.682 23.463,13.605 0.95,-0.767 1.936,-1.804 2.986,-3.215 28.819,-2.549 66.069,17.648 81.681,13.14 -1.54,17.59 -20.306,22.209 -20.889,23.967 4.132,15.837 0.85,37.357 -7.78,56.822 0.649,0.233 1.31,0.47 1.983,0.721 2.831,1.086 5.882,2.28 9.024,3.751 3.156,1.425 6.414,3.091 9.703,4.946 1.636,0.952 3.301,1.898 4.93,2.972 1.655,1.017 3.271,2.15 4.891,3.294 1.63,1.124 3.18,2.408 4.77,3.619 1.515,1.328 3.1,2.56 4.542,3.975 l 2.187,2.081 c 0.726,0.688 1.387,1.456 2.08,2.177 0.673,0.74 1.384,1.439 2.018,2.21 0.634,0.768 1.265,1.532 1.896,2.295 l 0.936,1.139 0.799,1.106 h -8.627 c -0.612,-0.554 -1.27,-1.064 -1.901,-1.603 -0.714,-0.574 -1.389,-1.188 -2.133,-1.728 l -2.22,-1.633 c -1.458,-1.11 -3.057,-2.041 -4.56,-3.064 -1.593,-0.912 -3.119,-1.887 -4.728,-2.713 -1.597,-0.846 -3.176,-1.681 -4.793,-2.409 -1.586,-0.781 -3.21,-1.441 -4.791,-2.111 -3.184,-1.293 -6.311,-2.419 -9.326,-3.341 -2.997,-0.962 -5.894,-1.684 -8.558,-2.335 -1.589,-0.371 -3.092,-0.687 -4.522,-0.965 -1.051,1.758 -2.15,3.477 -3.293,5.157 15.237,0.623 30.295,6.961 42.591,16.745 h -86.384 z"
           style="fill:#006600;fill-opacity:1;fill-rule:nonzero;stroke:none"
           id="path9200"
           inkscape:connector-curvature="0" /><path
           d="m 355.504,383.088 -1.559,-2.699 -2.159,-3.741 c 0.739,-1.386 1.435,-2.746 2.079,-4.064 l 4.506,7.805 0.452,0.783 c 5.236,1.403 8.11,6.382 10.984,11.36 1.567,2.714 6.978,12.09 10.714,24.852 -0.917,1.559 -1.801,3.068 -2.638,4.509 -10.321,-10.257 -16.362,-20.718 -18.033,-23.613 -2.874,-4.978 -5.749,-9.956 -4.346,-15.192"
           style="fill:#ffffff;fill-opacity:1;fill-rule:nonzero;stroke:none"
           id="path9202"
           inkscape:connector-curvature="0" /><path
           d="m 265.992,228.049 3.319,-1.916 18.254,31.617 2.159,3.74 c -0.739,1.387 -1.434,2.746 -2.078,4.064 l -4.506,-7.804 z"
           style="fill:#ffffff;fill-opacity:1;fill-rule:nonzero;stroke:none"
           id="path9204"
           inkscape:connector-curvature="0" /><path
           d="m 353.945,257.75 18.255,-31.617 3.319,1.916 -17.148,29.701 -4.506,7.805 c -0.644,-1.319 -1.34,-2.678 -2.079,-4.065 z"
           style="fill:#ffffff;fill-opacity:1;fill-rule:nonzero;stroke:none"
           id="path9206"
           inkscape:connector-curvature="0" /><path
           d="m 282.687,381.172 0.452,-0.783 4.507,-7.805 c 0.644,1.318 1.339,2.678 2.078,4.064 l -2.159,3.741 -1.559,2.699 c 1.203,4.49 -0.741,8.791 -3.132,13.064 -4.006,0.063 -8.58,0.423 -13.784,1.135 1.158,-2.23 2.097,-3.859 2.614,-4.755 2.874,-4.978 5.749,-9.957 10.983,-11.36"
           style="fill:#ffffff;fill-opacity:1;fill-rule:nonzero;stroke:none"
           id="path9208"
           inkscape:connector-curvature="0" /><path
           d="m 258.8,426.378 c 1.495,-7.761 3.867,-14.711 6.201,-20.318 2.85,-0.971 8.017,-2.256 13.684,-2.88 -3.694,5.743 -10.339,14.928 -19.885,23.198"
           style="fill:#ffffff;fill-opacity:1;fill-rule:nonzero;stroke:none"
           id="path9210"
           inkscape:connector-curvature="0" /><path
           d="m 427.482,359.034 c 44.418,-32.186 30.095,-70.488 -2.503,-85.954 h 34.634 c 18.831,25.4 21.283,60.84 -14.544,87.135 -2.162,1.586 -4.178,3.204 -6.063,4.844 h -18.803 c 2.203,-2.084 4.623,-4.1 7.279,-6.025"
           style="fill:#bb0000;fill-opacity:1;fill-rule:nonzero;stroke:none"
           id="path9212"
           inkscape:connector-curvature="0" /><path
           d="m 399.865,273.08 c 6.364,6.812 13.16,14.147 15.889,17.293 -18.643,3.106 -35.653,10.497 -49.495,19.16 -1.195,-12.15 -4.539,-24.302 -9.096,-36.453 z"
           style="fill:#bb0000;fill-opacity:1;fill-rule:nonzero;stroke:none"
           id="path9214"
           inkscape:connector-curvature="0" /><path
           d="m 232.09,273.08 h 7.676 c 5.524,6.036 10.815,11.004 13.148,14.313 3.297,4.676 4.175,9.076 3.686,13.035 0.311,-0.183 0.625,-0.349 0.938,-0.538 -0.147,1.871 -1.131,4.036 -2.699,6.377 -3.861,8.021 -12.28,13.137 -12.28,13.137 l -0.002,-0.002 c -9.525,8.462 -21.156,16.744 -27.195,21.037 -16.71,-22.075 -47.394,5.168 -65.718,-7.846 -0.314,-0.224 -0.608,-0.46 -0.911,-0.692 -8.544,3.22 -26.114,2.628 -28.754,-14.262 0.978,1.895 8.44,7.126 11.687,0.422 -6.375,-4.711 -11.54,-13.787 -6.12,-25.491 -0.269,2.388 5.401,15.717 13.487,7.707 l 0.002,0.009 c 2.608,-5.221 7.683,-9.088 15.3,-9.913 -13.438,10.325 4.696,17.007 11.732,10.556 7.035,-6.451 17.59,4.101 17.59,4.101 0,0 28.891,12.543 59.968,1.471 4.941,-3.739 3.183,-8.643 -3.565,-20.786 -2.331,-4.194 -5.199,-8.389 -7.97,-12.635"
           style="fill:#bb0000;fill-opacity:1;fill-rule:nonzero;stroke:none"
           id="path9216"
           inkscape:connector-curvature="0" /><path
           d="m 366.744,319.069 c 0,-0.046 -0.002,-0.09 -0.002,-0.136 26.472,-15.024 60.848,-25.774 81.268,-3.051 -46.864,-6.194 -66.582,34.957 -72.06,49.177 h -18.787 c 5.749,-15.33 9.581,-30.66 9.581,-45.99"
           style="fill:#bb0000;fill-opacity:1;fill-rule:nonzero;stroke:none"
           id="path9218"
           inkscape:connector-curvature="0" /><path
           d="m 471.041,274.698 c 0.55,1.603 1.087,3.161 1.605,4.669 0.458,1.522 0.801,3.022 1.179,4.438 0.415,1.407 0.593,2.808 0.84,4.117 0.206,1.318 0.509,2.542 0.595,3.727 0.115,1.178 0.224,2.28 0.324,3.298 0.096,1.016 0.211,1.944 0.202,2.793 0.075,3.372 0.119,5.3 0.119,5.3 0,0 -0.286,-1.898 -0.785,-5.224 -0.097,-0.831 -0.33,-1.734 -0.553,-2.718 -0.225,-0.983 -0.464,-2.042 -0.725,-3.177 -0.23,-1.137 -0.682,-2.299 -1.041,-3.544 -0.401,-1.235 -0.74,-2.554 -1.315,-3.859 -0.541,-1.313 -1.043,-2.699 -1.666,-4.087 -0.67,-1.364 -1.363,-2.77 -2.078,-4.218 -0.603,-1.024 -1.222,-2.072 -1.848,-3.133 h 4.451 c 0.233,0.542 0.468,1.086 0.696,1.618"
           style="fill:#bb0000;fill-opacity:1;fill-rule:nonzero;stroke:none"
           id="path9220"
           inkscape:connector-curvature="0" /><path
           d="m 414.577,345.408 c 1.514,3.282 -0.73,10.55 -4.89,19.651 h -15.961 c 6.253,-3.391 13.488,-9.34 20.851,-19.651"
           style="fill:#bb0000;fill-opacity:1;fill-rule:nonzero;stroke:none"
           id="path9222"
           inkscape:connector-curvature="0" /><path
           d="m 519.541,342.327 c -1.17,8.654 3.517,13.34 3.517,13.34 0,0 22.868,-14.356 21.696,-38.557 9.057,11.973 2.477,35.443 -2.054,47.949 h -37.147 c 2.29,-8.953 6.484,-19.25 13.988,-22.732"
           style="fill:#bb0000;fill-opacity:1;fill-rule:nonzero;stroke:none"
           id="path9224"
           inkscape:connector-curvature="0" /><path
           d="m 274.766,319.069 c 0,15.33 3.832,30.66 9.581,45.99 h -94.66 c 8.934,-3.984 17.167,-8.8 25.532,-17.164 12.205,-9.798 55.555,-29.754 44.558,-58.338 -2.269,-5.903 -6.452,-11.115 -11.057,-16.477 h 35.627 c -5.749,15.33 -9.581,30.659 -9.581,45.989"
           style="fill:#bb0000;fill-opacity:1;fill-rule:nonzero;stroke:none"
           id="path9226"
           inkscape:connector-curvature="0" /><path
           d="m 320.755,307.572 c -4.233,0 -7.664,5.148 -7.664,11.497 0,6.35 3.431,11.497 7.664,11.497 4.233,0 7.665,-5.147 7.665,-11.497 0,-6.349 -3.432,-11.497 -7.665,-11.497 m -1.916,103.189 v -80.482 c 0,0 -7.665,15.33 -7.665,40.241 0,24.911 7.665,40.241 7.665,40.241 m 11.497,-40.241 c 0,-24.911 -7.664,-40.241 -7.664,-40.241 v 80.482 c 0,0 7.664,-15.33 7.664,-40.241 m 19.388,-112.77 c 0.717,1.26 1.408,2.511 2.062,3.74 0.739,1.387 1.435,2.746 2.079,4.065 1.34,2.737 2.462,5.295 3.298,7.525 -5.748,15.33 -9.581,30.659 -9.581,45.989 0,1.458 0.046,2.916 0.113,4.374 -9.59,8.64 -15.674,17.042 -16.962,22.698 2.488,-3.155 8.868,-8.951 17.574,-15.299 1.366,11.405 4.58,22.811 8.856,34.217 -0.836,2.23 -1.958,4.787 -3.298,7.525 -0.644,1.318 -1.34,2.678 -2.079,4.064 -0.655,1.23 -1.345,2.48 -2.062,3.741 -8.36,14.661 -20.663,30.659 -28.969,30.659 -8.305,0 -20.609,-15.998 -28.968,-30.659 -0.719,-1.261 -1.408,-2.511 -2.063,-3.741 -0.739,-1.386 -1.434,-2.746 -2.078,-4.064 -1.34,-2.738 -2.463,-5.295 -3.299,-7.525 5.749,-15.33 9.581,-30.66 9.581,-45.99 0,-15.33 -3.832,-30.659 -9.581,-45.989 0.836,-2.231 1.959,-4.788 3.299,-7.526 0.644,-1.318 1.339,-2.677 2.078,-4.064 0.655,-1.229 1.344,-2.48 2.063,-3.74 8.359,-14.661 20.663,-30.659 28.968,-30.659 1.566,0 3.275,0.572 5.072,1.594 -0.711,0.356 -1.42,0.711 -2.126,1.059 -0.622,-1.548 -1.029,-2.366 -1.029,-2.366 v 2.873 c -1.287,0.633 -2.568,1.256 -3.833,1.862 v -4.735 c 0,0 -1.019,2.045 -2.313,5.838 -3.985,1.884 -7.829,3.632 -11.443,5.229 2.154,3.009 4.216,4.784 6.298,4.495 0.925,-0.444 1.836,-0.886 2.744,-1.328 -1.581,6.671 -2.951,15.479 -2.951,26.007 0,24.91 7.665,40.24 7.665,40.24 v -68.561 c 1.296,-0.642 2.572,-1.279 3.833,-1.914 v 70.475 c 0,0 7.664,-15.33 7.664,-40.24 0,-13.954 -2.404,-24.899 -4.521,-31.83 1.889,-0.965 3.737,-1.921 5.542,-2.869 6.371,5.975 13.139,15.662 18.367,24.83"
           style="fill:#bb0000;fill-opacity:1;fill-rule:nonzero;stroke:none"
           id="path9228"
           inkscape:connector-curvature="0" /><path
           d="m 357.163,273.08 c 4.557,12.151 7.901,24.303 9.096,36.453 -7.09,4.438 -13.345,9.209 -18.564,13.91 -0.067,-1.458 -0.113,-2.916 -0.113,-4.374 0,-15.33 3.833,-30.659 9.581,-45.989"
           style="fill:#000000;fill-opacity:1;fill-rule:nonzero;stroke:none"
           id="path9230"
           inkscape:connector-curvature="0" /><path
           d="m 357.163,365.059 c -4.276,-11.406 -7.49,-22.812 -8.856,-34.217 5.38,-3.923 11.647,-8.056 18.435,-11.909 0,0.046 0.002,0.09 0.002,0.136 0,15.33 -3.832,30.66 -9.581,45.99"
           style="fill:#000000;fill-opacity:1;fill-rule:nonzero;stroke:none"
           id="path9232"
           inkscape:connector-curvature="0" /><path
           d="m 284.347,273.08 c 5.749,15.33 9.581,30.659 9.581,45.989 0,15.33 -3.832,30.66 -9.581,45.99 -5.749,-15.33 -9.581,-30.66 -9.581,-45.99 0,-15.33 3.832,-30.659 9.581,-45.989"
           style="fill:#000000;fill-opacity:1;fill-rule:nonzero;stroke:none"
           id="path9234"
           inkscape:connector-curvature="0" /><path
           d="m 328.42,319.069 c 0,6.35 -3.432,11.497 -7.665,11.497 -4.233,0 -7.664,-5.147 -7.664,-11.497 0,-6.349 3.431,-11.497 7.664,-11.497 4.233,0 7.665,5.148 7.665,11.497"
           style="fill:#ffffff;fill-opacity:1;fill-rule:nonzero;stroke:none"
           id="path9236"
           inkscape:connector-curvature="0" /><path
           d="m 330.336,267.619 c 0,24.91 -7.664,40.24 -7.664,40.24 v -70.475 c 1.059,-0.534 2.108,-1.066 3.143,-1.595 2.117,6.931 4.521,17.876 4.521,31.83"
           style="fill:#ffffff;fill-opacity:1;fill-rule:nonzero;stroke:none"
           id="path9238"
           inkscape:connector-curvature="0" /><path
           d="m 323.701,229.744 c -0.344,0.171 -0.686,0.338 -1.029,0.507 v -2.873 c 0,0 0.407,0.818 1.029,2.366"
           style="fill:#ffffff;fill-opacity:1;fill-rule:nonzero;stroke:none"
           id="path9240"
           inkscape:connector-curvature="0" /><path
           d="m 318.839,330.279 v 80.482 c 0,0 -7.665,-15.33 -7.665,-40.241 0,-24.911 7.665,-40.241 7.665,-40.241"
           style="fill:#ffffff;fill-opacity:1;fill-rule:nonzero;stroke:none"
           id="path9242"
           inkscape:connector-curvature="0" /><path
           d="m 318.839,307.859 c 0,0 -7.665,-15.33 -7.665,-40.24 0,-10.528 1.37,-19.336 2.951,-26.007 1.598,-0.776 3.167,-1.548 4.714,-2.314 z"
           style="fill:#ffffff;fill-opacity:1;fill-rule:nonzero;stroke:none"
           id="path9244"
           inkscape:connector-curvature="0" /><path
           d="m 318.839,232.113 c -0.776,0.373 -1.547,0.741 -2.313,1.103 1.294,-3.793 2.313,-5.838 2.313,-5.838 z"
           style="fill:#ffffff;fill-opacity:1;fill-rule:nonzero;stroke:none"
           id="path9246"
           inkscape:connector-curvature="0" /><path
           d="m 322.672,330.279 c 0,0 7.664,15.33 7.664,40.241 0,24.911 -7.664,40.241 -7.664,40.241 z"
           style="fill:#ffffff;fill-opacity:1;fill-rule:nonzero;stroke:none"
           id="path9248"
           inkscape:connector-curvature="0" /></g></g></g></svg>